<svg width="18" height="21" viewBox="0 0 18 21" fill="none" xmlns="http://www.w3.org/2000/svg">
<path d="M9.00011 10.4897C10.4604 10.4897 12.0954 10.3348 13.1386 9.19292C14.0159 8.23274 14.3004 6.74808 14.0073 4.65841C13.5977 1.74174 11.7257 0 9.00011 0C6.27453 0 4.40251 1.74174 3.99297 4.66047C3.69983 6.74808 3.98435 8.23274 4.86163 9.19292C5.90487 10.3358 7.53979 10.4897 9.00011 10.4897ZM5.59448 4.86489C5.76907 3.62596 6.44266 1.54867 9.00011 1.54867C11.5576 1.54867 12.2312 3.62699 12.4057 4.86489C12.6288 6.46519 12.4672 7.57714 11.9208 8.17389C11.4304 8.71077 10.5564 8.941 9.00011 8.941C7.44387 8.941 6.56983 8.71077 6.07946 8.17389C5.53305 7.57714 5.37139 6.46416 5.59448 4.86489ZM17.9237 18.1504C16.9786 14.51 13.3089 11.9661 9.00011 11.9661C4.69134 11.9661 1.02167 14.51 0.0764974 18.1504C-0.108872 18.8649 0.0463174 19.5959 0.502198 20.1534C0.941912 20.6903 1.62304 21 2.36991 21H15.6303C16.3772 21 17.0583 20.6903 17.498 20.1534C17.955 19.5959 18.1091 18.8659 17.9227 18.1504H17.9237ZM16.2252 19.1994C16.0894 19.3646 15.8847 19.4534 15.6303 19.4534H2.36991C2.11664 19.4534 1.91079 19.3656 1.775 19.1994C1.62735 19.0198 1.58101 18.774 1.64568 18.5242C2.41087 15.5765 5.43605 13.5168 9.00011 13.5168C12.5642 13.5168 15.5894 15.5755 16.3545 18.5242C16.4192 18.774 16.3729 19.0198 16.2252 19.1994Z" fill="black"/>
</svg>
